<svg xmlns="http://www.w3.org/2000/svg" width="512" height="512" viewBox="0 0 512 512"><text transform="translate(168.783 543.809)" fill="#ff0" font-family="'Verdana-Bold'" font-size="20">simpleicon.com</text><text transform="translate(9.193 567.809)" fill="#ff0" font-family="'Verdana'" font-size="20">Collection Of Flat Icon, Symbols And Glyph Icons</text><path d="M265.23 364.383c-5.208-3.826-5.76-9.575-5.76-9.575l-1.95-12.473h-62.204l-1.957 12.473s-.545 5.75-5.75 9.575c-5.197 3.83-9.305 7.113-5.197 7.67 3.955.53 41.256.047 44.008 0 2.76.047 40.053.53 44.012 0 4.1-.557-.01-3.832-5.203-7.67zM120.538 259.694c0-5.77-4.68-10.45-10.452-10.45H60.453c-5.77 0-10.453 4.68-10.453 10.45v109.718c0 5.777 4.682 10.453 10.453 10.453h49.637c5.768 0 10.452-4.676 10.452-10.453V259.694h-.004zm-40.453 1.308h10.45c.723 0 1.307.583 1.307 1.3 0 .724-.584 1.312-1.306 1.312h-10.45c-.723 0-1.31-.592-1.31-1.312.002-.725.588-1.3 1.31-1.3zm4.79 112.683c-2.887 0-5.23-2.338-5.23-5.227 0-2.885 2.343-5.227 5.23-5.227 2.885 0 5.225 2.335 5.225 5.228 0 2.89-2.336 5.227-5.225 5.227zm29.134-14.717H56.53v-87.52h57.48v87.52zM447.343 189.137H339.846c-8.095 0-14.657 6.558-14.657 14.655v153.854c0 8.096 6.562 14.662 14.656 14.662h107.497c8.1 0 14.657-6.566 14.657-14.662V203.79c-.004-8.098-6.56-14.653-14.657-14.653zm-74.795 175.016c-4.047 0-7.334-3.274-7.334-7.318 0-4.048 3.287-7.33 7.334-7.33 4.04 0 7.315 3.282 7.315 7.33 0 4.044-3.275 7.318-7.315 7.318zm21.043 0c-4.04 0-7.322-3.274-7.322-7.318 0-4.048 3.283-7.33 7.323-7.33 4.053 0 7.327 3.282 7.327 7.33 0 4.044-3.27 7.318-7.326 7.318zm21.064 0c-4.052 0-7.327-3.274-7.327-7.318 0-4.048 3.275-7.33 7.327-7.33 4.043 0 7.322 3.282 7.322 7.33 0 4.044-3.28 7.318-7.322 7.318zm38.185-21.167H334.35V201.954h118.49v141.032zM358.547 176.778h18.017v-32.63c0-6.638-5.38-12.013-12.014-12.013H88.287c-6.633 0-12.014 5.375-12.014 12.014v92.738h18.02v-86.736h264.254v26.626zM132.9 294.287v36.034h179.93v-36.033H132.9zm93.516 26.257c-4.548 0-8.24-3.693-8.24-8.24 0-4.546 3.692-8.24 8.24-8.24 4.55 0 8.24 3.694 8.24 8.24s-3.69 8.24-8.24 8.24z"/></svg>